<svg xmlns="http://www.w3.org/2000/svg" viewBox="0 0 512 512" width="512" height="512">
  <!-- Background -->
  <rect width="512" height="512" rx="112" fill="#1f2937"/>
  
  <!-- Lightbulb Glow -->
  <circle cx="256" cy="220" r="120" fill="#f4b942" opacity="0.15"/>
  <circle cx="256" cy="220" r="80" fill="#f4b942" opacity="0.25"/>
  
  <!-- Lightbulb Body -->
  <path d="M256 120 C210 120 172 158 172 204 C172 240 190 268 210 288 C220 298 226 310 226 322 L226 340 C226 348 232 354 240 354 L272 354 C280 354 286 348 286 340 L286 322 C286 310 292 298 302 288 C322 268 340 240 340 204 C340 158 302 120 256 120Z" fill="#f4b942"/>
  
  <!-- Lightbulb Highlight -->
  <path d="M256 140 C222 140 194 166 192 198 C196 170 220 150 256 150 C292 150 316 170 320 198 C318 166 290 140 256 140Z" fill="#fef08a" opacity="0.6"/>
  
  <!-- Lightbulb Base -->
  <rect x="240" y="354" width="32" height="12" rx="4" fill="#d1d5db"/>
  <rect x="244" y="366" width="24" height="20" rx="3" fill="#9ca3af"/>
  
  <!-- Light Rays -->
  <line x1="256" y1="90" x2="256" y2="70" stroke="#f4b942" stroke-width="4" stroke-linecap="round" opacity="0.8"/>
  <line x1="196" y1="110" x2="182" y2="96" stroke="#f4b942" stroke-width="4" stroke-linecap="round" opacity="0.8"/>
  <line x1="316" y1="110" x2="330" y2="96" stroke="#f4b942" stroke-width="4" stroke-linecap="round" opacity="0.8"/>
  <line x1="162" y1="160" x2="144" y2="154" stroke="#f4b942" stroke-width="4" stroke-linecap="round" opacity="0.8"/>
  <line x1="350" y1="160" x2="368" y2="154" stroke="#f4b942" stroke-width="4" stroke-linecap="round" opacity="0.8"/>
  
  <!-- Small decorative note lines -->
  <line x1="210" y1="240" x2="302" y2="240" stroke="#fff" stroke-width="3" stroke-linecap="round" opacity="0.3"/>
  <line x1="220" y1="260" x2="292" y2="260" stroke="#fff" stroke-width="3" stroke-linecap="round" opacity="0.2"/>
  <line x1="230" y1="280" x2="282" y2="280" stroke="#fff" stroke-width="3" stroke-linecap="round" opacity="0.15"/>
</svg>